#!OML:ASF X:\für Bonn\!DataBase\2005_08_12_Daniel\c3d\Daniel.ASF
:FULLY-SPECIFIED
:DEGREES
260
root 0.246018 16.9926 0.252632 -112.639 -89.6969 103.864
lowerback 13.2679 -0.0747785 1.84915
upperback 0.798895 -0.162587 -3.65433
thorax -6.62499 -0.228191 -4.90178
lowerneck -1.55817 -0.470226 -3.37726
upperneck -2.35041 -0.672376 -2.32698
head -0.4541 -0.31871 -0.155834
rclavicle 2.5842e-015 -2.46493e-014
rhumerus -228.28 -192.757 75.7936
rradius 93.2327
rwrist 9.19753
rhand -20.7682 373.792
rfingers 7.12502
rthumb 5.59814 -16.114
lclavicle 2.5842e-015 -2.46493e-014
lhumerus -224.971 193.516 -79.2758
lradius 101.948
lwrist 11.1093
lhand -16.6981 368.563
lfingers 7.12502
lthumb 9.52668 38.3272
rfemur 5.44795 12.8948 18.5995
rtibia 27.6148
rfoot -33.0847 -21.8787
rtoes -10.5979
lfemur -5.15487 -15.0258 -18.6759
ltibia 40.0323
lfoot -30.0182 5.57848
ltoes -1.13092
261
root 0.260337 16.9974 0.25305 -113.446 -89.667 104.651
lowerback 13.5725 -0.0793291 1.76441
upperback 0.976883 -0.191647 -3.7292
thorax -6.60815 -0.241673 -4.92987
lowerneck -1.99987 -0.50151 -3.47417
upperneck -2.71019 -0.709743 -2.28554
head -0.491012 -0.335566 -0.128563
rclavicle -1.10698e-014 1.98785e-014
rhumerus -230.656 -190.312 75.1269
rradius 92.701
rwrist 7.39819
rhand -20.3938 372.931
rfingers 7.12502
rthumb 5.95966 -16.9656
lclavicle -1.10698e-014 1.98785e-014
lhumerus -226.885 191.947 -79.1464
lradius 101.684
lwrist 9.66589
lhand -17.0178 368.127
lfingers 7.12502
lthumb 9.21816 37.9059
rfemur 5.48839 13.1925 18.6705
rtibia 27.5385
rfoot -33.2399 -22.0962
rtoes -10.6465
lfemur -5.03086 -15.5117 -18.867
ltibia 39.8738
lfoot -30.1198 6.08352
ltoes -1.14243
262
root 0.275427 16.9997 0.251944 -113.753 -89.6398 104.869
lowerback 13.9759 -0.0979285 1.6368
upperback 1.16768 -0.244859 -3.76982
thorax -6.63428 -0.266252 -4.89303
lowerneck -2.49722 -0.507743 -3.64913
upperneck -3.02271 -0.707446 -2.20236
head -0.504538 -0.33362 -0.0763639
rclavicle 1.11816e-016 -1.35174e-014
rhumerus -233.005 -188.297 74.726
rradius 92.4125
rwrist 5.49892
rhand -20.4111 372.186
rfingers 7.12502
rthumb 5.94296 -17.7108
lclavicle 1.11816e-016 -1.35174e-014
lhumerus -228.762 190.293 -79.0982
lradius 101.59
lwrist 8.29059
lhand -17.1103 367.817
lfingers 7.12502
lthumb 9.12895 37.5989
rfemur 5.6046 13.5148 18.7768
rtibia 27.473
rfoot -33.4255 -22.3517
rtoes -10.7319
lfemur -4.82626 -15.9578 -19.0602
ltibia 39.7093
lfoot -30.224 6.54633
ltoes -1.13414
263
root 0.291875 17.0007 0.25133 -112.25 -89.5878 103.225
lowerback 14.4436 -0.105763 1.51088
upperback 1.38709 -0.288626 -3.83805
thorax -6.66396 -0.287514 -4.88898
lowerneck -3.04357 -0.529504 -3.72315
upperneck -3.30642 -0.72611 -2.19816
head -0.501948 -0.34412 -0.0646565
rclavicle 1.71762e-015 -7.95139e-016
rhumerus -235.167 -186.6 74.4979
rradius 92.2403
rwrist 3.65867
rhand -20.824 371.64
rfingers 7.12502
rthumb 5.5443 -18.2678
lclavicle 1.71762e-015 -7.95139e-016
lhumerus -230.524 188.761 -79.1912
lradius 101.581
lwrist 7.10516
lhand -17.0312 367.772
lfingers 7.12502
lthumb 9.20527 37.5508
rfemur 5.77113 13.8002 18.8504
rtibia 27.4141
rfoot -33.5901 -22.6002
rtoes -10.8497
lfemur -4.56681 -16.3801 -19.2963
ltibia 39.5457
lfoot -30.2972 6.98182
ltoes -1.14176
264
root 0.309525 17.0015 0.250581 -108.195 -89.5578 99.014
lowerback 14.9561 -0.136879 1.3839
upperback 1.58928 -0.363288 -3.88113
thorax -6.73868 -0.324543 -4.85162
lowerneck -3.55677 -0.525117 -3.82169
upperneck -3.56021 -0.70949 -2.19036
head -0.49605 -0.337177 -0.0477125
rclavicle -1.40392e-015 2.38542e-014
rhumerus -237.121 -185.184 74.3995
rradius 92.0235
rwrist 2.03315
rhand -21.4941 371.412
rfingers 7.12502
rthumb 4.89728 -18.5113
lclavicle -1.40392e-015 2.38542e-014
lhumerus -232.23 187.264 -79.3871
lradius 101.681
lwrist 6.11825
lhand -16.6702 367.971
lfingers 7.12502
lthumb 9.55355 37.7342
rfemur 5.94354 14.0496 18.9397
rtibia 27.3715
rfoot -33.7553 -22.8241
rtoes -10.9601
lfemur -4.30237 -16.8481 -19.527
ltibia 39.38
lfoot -30.3798 7.44943
ltoes -1.23364
265
root 0.328503 17.0023 0.249322 -103.735 -89.5269 94.4089
lowerback 15.4893 -0.170093 1.2616
upperback 1.76724 -0.442759 -3.9321
thorax -6.85009 -0.365231 -4.82457
lowerneck -4.05082 -0.518793 -3.8267
upperneck -3.77924 -0.694363 -2.2561
head -0.483369 -0.332553 -0.0680719
rclavicle 1.54058e-015 3.26007e-014
rhumerus -238.882 -184.077 74.3533
rradius 91.835
rwrist 0.659198
rhand -22.3534 371.298
rfingers 7.12502
rthumb 4.06748 -18.6429
lclavicle 1.54058e-015 3.26007e-014
lhumerus -233.895 185.912 -79.6907
lradius 101.897
lwrist 5.2713
lhand -16.1662 368.486
lfingers 7.12502
lthumb 10.0399 38.2265
rfemur 6.08108 14.2131 19.0007
rtibia 27.3379
rfoot -33.8304 -23.0115
rtoes -11.0947
lfemur -4.07441 -17.2763 -19.7363
ltibia 39.2205
lfoot -30.4176 7.88162
ltoes -1.26457
266
root 0.349049 17.0037 0.248326 -99.5623 -89.476 90.1292
lowerback 15.9941 -0.203977 1.13944
upperback 1.93493 -0.526511 -4.00319
thorax -6.95633 -0.408527 -4.81752
lowerneck -4.56558 -0.495354 -3.75959
upperneck -3.92661 -0.656304 -2.3589
head -0.446303 -0.31892 -0.111159
rclavicle -3.15571e-015 -4.53229e-014
rhumerus -240.54 -183.398 74.2633
rradius 91.744
rwrist -0.639427
rhand -23.4645 371.319
rfingers 7.12502
rthumb 2.99454 -18.64
lclavicle -3.15571e-015 -4.53229e-014
lhumerus -235.449 184.741 -80.0784
lradius 102.033
lwrist 4.55992
lhand -15.5577 369.019
lfingers 7.12502
lthumb 10.6269 38.7307
rfemur 6.16201 14.3803 19.0269
rtibia 27.3258
rfoot -33.9402 -23.1866
rtoes -11.166
lfemur -3.89077 -17.6981 -19.9516
ltibia 39.0585
lfoot -30.4456 8.28657
ltoes -1.26129
267
root 0.371042 17.0054 0.247099 -95.3406 -89.4489 85.8325
lowerback 16.4818 -0.249466 1.03158
upperback 2.06883 -0.62126 -4.04664
thorax -7.08916 -0.457229 -4.78594
lowerneck -4.92124 -0.43956 -3.67056
upperneck -4.13961 -0.58953 -2.54136
head -0.45521 -0.289027 -0.180615
rclavicle -8.64713e-015 -2.22639e-014
rhumerus -242.226 -183.144 74.1327
rradius 91.7593
rwrist -1.86008
rhand -24.8227 371.31
rfingers 7.12502
rthumb 1.68276 -18.6627
lclavicle -8.64713e-015 -2.22639e-014
lhumerus -236.851 183.672 -80.5024
lradius 101.942
lwrist 3.96126
lhand -14.8795 369.419
lfingers 7.12502
lthumb 11.281 39.0954
rfemur 6.16951 14.4096 19.0183
rtibia 27.3252
rfoot -33.9349 -23.2589
rtoes -11.2971
lfemur -3.77785 -18.0554 -20.0943
ltibia 38.9113
lfoot -30.4417 8.61489
ltoes -1.24484
268
root 0.393628 17.0098 0.245898 -91.5227 -89.3811 82.0436
lowerback 16.8668 -0.289778 0.889934
upperback 2.15226 -0.715486 -4.10093
thorax -7.21879 -0.504508 -4.7455
lowerneck -5.2233 -0.388109 -3.60551
upperneck -4.2941 -0.526915 -2.70272
head -0.454774 -0.26131 -0.239677
rclavicle -2.23633e-015 2.70347e-014
rhumerus -243.788 -183.09 73.9611
rradius 91.7456
rwrist -2.88274
rhand -26.2245 371.345
rfingers 7.12502
rthumb 0.328939 -18.6346
lclavicle -2.23633e-015 2.70347e-014
lhumerus -238.088 182.819 -80.9611
lradius 101.685
lwrist 3.47317
lhand -14.2295 369.538
lfingers 7.12502
lthumb 11.9078 39.1797
rfemur 6.04129 14.4003 18.9207
rtibia 27.3476
rfoot -33.9003 -23.3004
rtoes -11.3674
lfemur -3.80045 -18.317 -20.2122
ltibia 38.7679
lfoot -30.3899 8.86942
ltoes -1.2406
269
root 0.418246 17.0147 0.245146 -87.5194 -89.3671 78.1369
lowerback 17.201 -0.344437 0.829198
upperback 2.21141 -0.813873 -4.16276
thorax -7.34762 -0.555744 -4.75811
lowerneck -5.57136 -0.357348 -3.55324
upperneck -4.38596 -0.484016 -2.78283
head -0.427681 -0.244695 -0.272487
rclavicle 9.44227e-016 -3.18055e-014
rhumerus -245.17 -183.226 73.7252
rradius 91.6933
rwrist -3.80611
rhand -27.5956 371.345
rfingers 7.12502
rthumb -0.995362 -18.6326
lclavicle 9.44227e-016 -3.18055e-014
lhumerus -239.177 182.162 -81.4735
lradius 101.401
lwrist 3.03845
lhand -13.5759 369.372
lfingers 7.12502
lthumb 12.538 38.9757
rfemur 5.81737 14.3242 18.8432
rtibia 27.3773
rfoot -33.8097 -23.3055
rtoes -11.3741
lfemur -3.9419 -18.4979 -20.2025
ltibia 38.6485
lfoot -30.2985 8.99157
ltoes -1.17229
270
root 0.44417 17.02 0.244362 -83.8024 -89.3327 74.5441
lowerback 17.4862 -0.399307 0.743924
upperback 2.26381 -0.916728 -4.22448
thorax -7.45663 -0.607914 -4.75432
lowerneck -5.92324 -0.344752 -3.56571
upperneck -4.43031 -0.458412 -2.81613
head -0.38543 -0.236681 -0.281
rclavicle -5.11871e-015 -1.59028e-015
rhumerus -246.359 -183.547 73.4463
rradius 91.5437
rwrist -4.57084
rhand -28.9071 371.34
rfingers 7.12502
rthumb -2.26196 -18.6278
lclavicle -5.11871e-015 -1.59028e-015
lhumerus -240.121 181.643 -81.9965
lradius 101.135
lwrist 2.70648
lhand -12.9261 368.867
lfingers 7.12502
lthumb 13.1645 38.4309
rfemur 5.54444 14.2478 18.7307
rtibia 27.4261
rfoot -33.7534 -23.2406
rtoes -11.4459
lfemur -4.12976 -18.6878 -20.2017
ltibia 38.5431
lfoot -30.2187 9.13232
ltoes -1.09363
271
root 0.470684 17.0269 0.243253 -80.4747 -89.2923 71.3899
lowerback 17.6278 -0.45515 0.660302
upperback 2.31068 -1.01909 -4.30087
thorax -7.49297 -0.658643 -4.76567
lowerneck -6.059 -0.328189 -3.54415
upperneck -4.51884 -0.439324 -2.8477
head -0.390856 -0.228578 -0.293975
rclavicle -2.08724e-015 -3.02153e-014
rhumerus -247.43 -184.016 73.1472
rradius 91.4153
rwrist -5.20321
rhand -29.9668 371.407
rfingers 7.12502
rthumb -3.28535 -18.5477
lclavicle -2.08724e-015 -3.02153e-014
lhumerus -241.003 181.278 -82.5369
lradius 100.911
lwrist 2.34721
lhand -12.3693 368.028
lfingers 7.12502
lthumb 13.7011 37.5569
rfemur 5.19371 14.0659 18.5665
rtibia 27.4831
rfoot -33.5816 -23.1759
rtoes -11.4889
lfemur -4.40041 -18.8433 -20.1653
ltibia 38.4604
lfoot -30.1202 9.22461
ltoes -0.930889
272
root 0.499137 17.0332 0.243061 -76.8983 -89.2796 68.0159
lowerback 17.6715 -0.519285 0.597183
upperback 2.36811 -1.12405 -4.35948
thorax -7.46432 -0.709454 -4.76746
lowerneck -6.08631 -0.304682 -3.53575
upperneck -4.63593 -0.415834 -2.87559
head -0.422136 -0.216153 -0.303434
rclavicle -2.98177e-016 -7.95139e-015
rhumerus -248.367 -184.619 72.8568
rradius 91.3462
rwrist -5.56957
rhand -30.7856 371.458
rfingers 7.12502
rthumb -4.07607 -18.4831
lclavicle -2.98177e-016 -7.95139e-015
lhumerus -241.792 181.014 -83.0743
lradius 100.773
lwrist 2.01893
lhand -11.8009 366.921
lfingers 7.12502
lthumb 14.2488 36.4118
rfemur 4.77476 13.8019 18.3897
rtibia 27.5603
rfoot -33.3414 -23.0109
rtoes -11.4825
lfemur -4.7287 -18.9221 -20.0653
ltibia 38.3963
lfoot -29.9833 9.25559
ltoes -0.872062
